<svg width="32" height="32" viewBox="0 0 32 32" fill="none" xmlns="http://www.w3.org/2000/svg">
  <defs>
    <linearGradient id="gradient" x1="0%" y1="0%" x2="100%" y2="100%">
      <stop offset="0%" style="stop-color:#6366f1;stop-opacity:1" />
      <stop offset="50%" style="stop-color:#8b5cf6;stop-opacity:1" />
      <stop offset="100%" style="stop-color:#d946ef;stop-opacity:1" />
    </linearGradient>
  </defs>
  
  <!-- Rounded square background -->
  <rect width="32" height="32" rx="6" fill="url(#gradient)"/>
  
  <!-- Support ticket icon - stylized 'S' with support symbol -->
  <path d="M16 6C13.2386 6 11 8.23858 11 11V12H9C8.44772 12 8 12.4477 8 13V14C8 14.5523 8.44772 15 9 15H11V17H9C8.44772 17 8 17.4477 8 18V19C8 19.5523 8.44772 20 9 20H11V21C11 23.7614 13.2386 26 16 26C18.7614 26 21 23.7614 21 21V20H23C23.5523 20 24 19.5523 24 19V18C24 17.4477 23.5523 17 23 17H21V15H23C23.5523 15 24 14.5523 24 14V13C24 12.4477 23.5523 12 23 12H21V11C21 8.23858 18.7614 6 16 6Z" fill="white" fill-opacity="0.95"/>
  
  <!-- Inner accent -->
  <circle cx="16" cy="16" r="3" fill="white" fill-opacity="0.3"/>
</svg>
